<svg xmlns="http://www.w3.org/2000/svg" xmlns:xlink="http://www.w3.org/1999/xlink" width="504" height="72" version="1.1" viewBox="0 0 378 54"><defs><style type="text/css">*{stroke-linejoin:round;stroke-linecap:butt}</style></defs><g id="figure_1"><g id="text_1"><g transform="translate(31.64 30.84)"><text><tspan x="0" y="-10.974" style="font-size:9.407166px;font-family:'cmex10'">¥</tspan> <tspan x="33.16" y="-10.974" style="font-size:9.407166px;font-family:'cmex10'">²</tspan> <tspan x="46.144" y="-10.974" style="font-size:9.407166px;font-family:'cmex10'">¦</tspan> <tspan x="4.441" y="-.068" style="font-size:16px;font-family:'cmmi10'">M</tspan> <tspan x="19.965" y="-2.896" style="font-size:11.28125px;font-family:'cmmi10'">=</tspan> <tspan x="25.605" y="-.068" style="font-size:16px;font-family:'cmr10'">?</tspan> <tspan x="38.589" y="-.068" style="font-size:16px;font-family:'cmr10'">?</tspan> <tspan x="79.47" y="-.068" style="font-size:16px;font-family:'cmr10'">?</tspan> <tspan x="95.835" y="-.068" style="font-size:16px;font-family:'cmr10'">?</tspan> <tspan x="139.059" y="-.068" style="font-size:16px;font-family:'cmr10'">?</tspan> <tspan x="157.196" y="-.068" style="font-size:16px;font-family:'cmr10'">?</tspan> <tspan x="204.058" y="-.068" style="font-size:16px;font-family:'cmr10'">?</tspan> <tspan x="224.602" y="-.068" style="font-size:16px;font-family:'cmr10'">?</tspan> <tspan x="274.932" y="-.068" style="font-size:16px;font-family:'cmr10'">?</tspan> <tspan x="298.293" y="-.068" style="font-size:16px;font-family:'cmr10'">?</tspan> <tspan x="50.585" y="-12.614" style="font-size:15.270358px;font-family:'cmex10'">¥</tspan> <tspan x="70.659" y="-12.614" style="font-size:15.270358px;font-family:'cmex10'">±</tspan> <tspan x="87.024" y="-12.614" style="font-size:15.270358px;font-family:'cmex10'">²</tspan> <tspan x="103.39" y="-12.614" style="font-size:15.270358px;font-family:'cmex10'">¦</tspan> <tspan x="58.793" y="-5.567" style="font-size:11.2px;font-family:'cmmi10'">M</tspan> <tspan x="59.793" y="5.089" style="font-size:11.2px;font-family:'cmmi10'">B</tspan> <tspan x="118.471" y="5.089" style="font-size:11.2px;font-family:'cmmi10'">B</tspan> <tspan x="110.598" y="-17.864" style="font-size:13.050163px;font-family:'cmex10'">j</tspan> <tspan x="128.478" y="-17.864" style="font-size:13.050163px;font-family:'cmex10'">.</tspan> <tspan x="146.614" y="-17.864" style="font-size:13.050163px;font-family:'cmex10'">/</tspan> <tspan x="164.75" y="-17.864" style="font-size:13.050163px;font-family:'cmex10'">k</tspan> <tspan x="119.171" y="-13.027" style="font-size:7.84px;font-family:'cmmi10'">M</tspan> <tspan x="121.171" y="-5.567" style="font-size:7.84px;font-family:'cmmi10'">I</tspan> <tspan x="181.762" y="-13.027" style="font-size:7.84px;font-family:'cmmi10'">M</tspan> <tspan x="182.762" y="2.792" style="font-size:7.84px;font-family:'cmmi10'">B</tspan> <tspan x="182.762" y="10.251" style="font-size:7.84px;font-family:'cmmi10'">U</tspan> <tspan x="183.762" y="-5.567" style="font-size:7.84px;font-family:'cmmi10'">I</tspan> <tspan x="251.121" y="-5.567" style="font-size:7.84px;font-family:'cmmi10'">N</tspan> <tspan x="251.121" y="14.157" style="font-size:7.84px;font-family:'cmmi10'">G</tspan> <tspan x="171.624" y="-17.745" style="font-size:16.01798px;font-family:'cmex10'">j</tspan> <tspan x="191.069" y="-17.745" style="font-size:16.01798px;font-family:'cmex10'">.</tspan> <tspan x="211.612" y="-17.745" style="font-size:16.01798px;font-family:'cmex10'">/</tspan> <tspan x="232.156" y="-17.745" style="font-size:16.01798px;font-family:'cmex10'">k</tspan> <tspan x="240.594" y="-21.386" style="font-size:15.142362px;font-family:'cmex10'">¹</tspan> <tspan x="259.126" y="-21.386" style="font-size:15.142362px;font-family:'cmex10'">Á</tspan> <tspan x="282.487" y="-21.386" style="font-size:15.142362px;font-family:'cmex10'">Â</tspan> <tspan x="305.847" y="-21.386" style="font-size:15.142362px;font-family:'cmex10'">º</tspan> <tspan x="251.611" y="-18.248" style="font-size:5.488px;font-family:'cmmi10'">M</tspan> <tspan x="252.611" y="-13.027" style="font-size:5.488px;font-family:'cmmi10'">I</tspan> <tspan x="252.611" y="1.184" style="font-size:5.488px;font-family:'cmmi10'">B</tspan> <tspan x="252.611" y="6.406" style="font-size:5.488px;font-family:'cmmi10'">U</tspan></text><rect width="10.866" height="1" x="58.793" y="-4.567"/><rect width="7.606" height=".7" x="119.171" y="-12.627"/><rect width="9.006" height="1" x="118.471" y="-4.567"/><rect width="7.606" height=".7" x="181.762" y="-12.627"/><rect width="9.006" height="1" x="181.062" y="-4.567"/><rect width="5.941" height=".7" x="182.762" y="3.192"/><rect width="5.325" height=".49" x="251.611" y="-18.268"/><rect width="6.305" height=".7" x="251.121" y="-12.627"/><rect width="7.705" height="1" x="250.421" y="-4.567"/><rect width="4.159" height=".49" x="252.611" y="1.164"/><rect width="6.163" height=".7" x="251.121" y="6.929"/></g></g></g></svg>