<svg xmlns="http://www.w3.org/2000/svg" xmlns:xlink="http://www.w3.org/1999/xlink" width="504" height="72" version="1.1" viewBox="0 0 378 54"><defs><style type="text/css">*{stroke-linejoin:round;stroke-linecap:butt}</style></defs><g id="figure_1"><g id="text_1"><g transform="translate(36.28 30.84)"><text><tspan x="0" y="-2.896" style="font-size:11.28125px;font-family:'cmr10'">[</tspan> <tspan x="44.826" y="-2.896" style="font-size:11.28125px;font-family:'cmr10'">]</tspan> <tspan x="3.123" y="-.068" style="font-size:16px;font-family:'cmmi10'">M</tspan> <tspan x="18.647" y="-2.896" style="font-size:11.28125px;font-family:'cmmi10'">=</tspan> <tspan x="24.287" y="-.068" style="font-size:16px;font-family:'cmr10'">?</tspan> <tspan x="37.271" y="-.068" style="font-size:16px;font-family:'cmr10'">?</tspan> <tspan x="75.976" y="-.068" style="font-size:16px;font-family:'cmr10'">?</tspan> <tspan x="92.342" y="-.068" style="font-size:16px;font-family:'cmr10'">?</tspan> <tspan x="133.995" y="-.068" style="font-size:16px;font-family:'cmr10'">?</tspan> <tspan x="152.132" y="-.068" style="font-size:16px;font-family:'cmr10'">?</tspan> <tspan x="197.404" y="-.068" style="font-size:16px;font-family:'cmr10'">?</tspan> <tspan x="217.948" y="-.068" style="font-size:16px;font-family:'cmr10'">?</tspan> <tspan x="266.553" y="-.068" style="font-size:16px;font-family:'cmr10'">?</tspan> <tspan x="289.913" y="-.068" style="font-size:16px;font-family:'cmr10'">?</tspan> <tspan x="31.842" y="-10.974" style="font-size:9.407166px;font-family:'cmex10'">²</tspan> <tspan x="47.949" y="-12.614" style="font-size:15.270358px;font-family:'cmex10'">£</tspan> <tspan x="67.166" y="-12.614" style="font-size:15.270358px;font-family:'cmex10'">±</tspan> <tspan x="83.531" y="-12.614" style="font-size:15.270358px;font-family:'cmex10'">²</tspan> <tspan x="99.896" y="-12.614" style="font-size:15.270358px;font-family:'cmex10'">¤</tspan> <tspan x="55.3" y="-5.567" style="font-size:11.2px;font-family:'cmmi10'">M</tspan> <tspan x="56.3" y="5.089" style="font-size:11.2px;font-family:'cmmi10'">B</tspan> <tspan x="113.407" y="5.089" style="font-size:11.2px;font-family:'cmmi10'">B</tspan> <tspan x="106.247" y="-17.864" style="font-size:13.050163px;font-family:'cmex10'">h</tspan> <tspan x="123.414" y="-17.864" style="font-size:13.050163px;font-family:'cmex10'">.</tspan> <tspan x="141.55" y="-17.864" style="font-size:13.050163px;font-family:'cmex10'">/</tspan> <tspan x="159.686" y="-17.864" style="font-size:13.050163px;font-family:'cmex10'">i</tspan> <tspan x="114.107" y="-13.027" style="font-size:7.84px;font-family:'cmmi10'">M</tspan> <tspan x="116.107" y="-5.567" style="font-size:7.84px;font-family:'cmmi10'">I</tspan> <tspan x="175.109" y="-13.027" style="font-size:7.84px;font-family:'cmmi10'">M</tspan> <tspan x="176.109" y="2.792" style="font-size:7.84px;font-family:'cmmi10'">B</tspan> <tspan x="176.109" y="10.251" style="font-size:7.84px;font-family:'cmmi10'">U</tspan> <tspan x="177.109" y="-5.567" style="font-size:7.84px;font-family:'cmmi10'">I</tspan> <tspan x="242.742" y="-5.567" style="font-size:7.84px;font-family:'cmmi10'">N</tspan> <tspan x="242.742" y="14.157" style="font-size:7.84px;font-family:'cmmi10'">G</tspan> <tspan x="165.847" y="-17.745" style="font-size:16.01798px;font-family:'cmex10'">h</tspan> <tspan x="184.415" y="-17.745" style="font-size:16.01798px;font-family:'cmex10'">.</tspan> <tspan x="204.959" y="-17.745" style="font-size:16.01798px;font-family:'cmex10'">/</tspan> <tspan x="225.503" y="-17.745" style="font-size:16.01798px;font-family:'cmex10'">i</tspan> <tspan x="233.065" y="-21.386" style="font-size:15.142362px;font-family:'cmex10'">∙</tspan> <tspan x="250.747" y="-21.386" style="font-size:15.142362px;font-family:'cmex10'">Á</tspan> <tspan x="274.107" y="-21.386" style="font-size:15.142362px;font-family:'cmex10'">Â</tspan> <tspan x="297.468" y="-21.386" style="font-size:15.142362px;font-family:'cmex10'">¸</tspan> <tspan x="243.232" y="-18.248" style="font-size:5.488px;font-family:'cmmi10'">M</tspan> <tspan x="244.232" y="-13.027" style="font-size:5.488px;font-family:'cmmi10'">I</tspan> <tspan x="244.232" y="1.184" style="font-size:5.488px;font-family:'cmmi10'">B</tspan> <tspan x="244.232" y="6.406" style="font-size:5.488px;font-family:'cmmi10'">U</tspan></text><rect width="10.866" height="1" x="55.3" y="-4.567"/><rect width="7.606" height=".7" x="114.107" y="-12.627"/><rect width="9.006" height="1" x="113.407" y="-4.567"/><rect width="7.606" height=".7" x="175.109" y="-12.627"/><rect width="9.006" height="1" x="174.409" y="-4.567"/><rect width="5.941" height=".7" x="176.109" y="3.192"/><rect width="5.325" height=".49" x="243.232" y="-18.268"/><rect width="6.305" height=".7" x="242.742" y="-12.627"/><rect width="7.705" height="1" x="242.042" y="-4.567"/><rect width="4.159" height=".49" x="244.232" y="1.164"/><rect width="6.163" height=".7" x="242.742" y="6.929"/></g></g></g></svg>