<svg xmlns="http://www.w3.org/2000/svg" xmlns:xlink="http://www.w3.org/1999/xlink" width="504" height="72" version="1.1" viewBox="0 0 378 54"><defs><style type="text/css">*{stroke-linejoin:round;stroke-linecap:butt}</style></defs><g id="figure_1"><g id="text_1"><g transform="translate(26.76 30.84)"><text><tspan x="0" y="-2.896" style="font-size:11.28125px;font-family:'cmsy10'">h</tspan> <tspan x="46.081" y="-2.896" style="font-size:11.28125px;font-family:'cmsy10'">i</tspan> <tspan x="4.379" y="-.068" style="font-size:16px;font-family:'cmmi10'">M</tspan> <tspan x="19.903" y="-2.896" style="font-size:11.28125px;font-family:'cmmi10'">=</tspan> <tspan x="25.543" y="-.068" style="font-size:16px;font-family:'cmr10'">?</tspan> <tspan x="38.527" y="-.068" style="font-size:16px;font-family:'cmr10'">?</tspan> <tspan x="79.338" y="-.068" style="font-size:16px;font-family:'cmr10'">?</tspan> <tspan x="95.703" y="-.068" style="font-size:16px;font-family:'cmr10'">?</tspan> <tspan x="140.007" y="-.068" style="font-size:16px;font-family:'cmr10'">?</tspan> <tspan x="158.143" y="-.068" style="font-size:16px;font-family:'cmr10'">?</tspan> <tspan x="207.427" y="-.068" style="font-size:16px;font-family:'cmr10'">?</tspan> <tspan x="227.971" y="-.068" style="font-size:16px;font-family:'cmr10'">?</tspan> <tspan x="282.165" y="-.068" style="font-size:16px;font-family:'cmr10'">?</tspan> <tspan x="305.525" y="-.068" style="font-size:16px;font-family:'cmr10'">?</tspan> <tspan x="33.098" y="-10.974" style="font-size:9.407166px;font-family:'cmex10'">²</tspan> <tspan x="50.461" y="-12.599" style="font-size:15.257933px;font-family:'cmex10'">­</tspan> <tspan x="103.258" y="-12.599" style="font-size:15.257933px;font-family:'cmex10'">®</tspan> <tspan x="58.661" y="-5.567" style="font-size:11.2px;font-family:'cmmi10'">M</tspan> <tspan x="59.661" y="5.089" style="font-size:11.2px;font-family:'cmmi10'">B</tspan> <tspan x="119.419" y="5.089" style="font-size:11.2px;font-family:'cmmi10'">B</tspan> <tspan x="70.528" y="-12.614" style="font-size:15.270358px;font-family:'cmex10'">±</tspan> <tspan x="86.893" y="-12.614" style="font-size:15.270358px;font-family:'cmex10'">²</tspan> <tspan x="110.459" y="-17.849" style="font-size:13.043082px;font-family:'cmex10'">D</tspan> <tspan x="165.697" y="-17.849" style="font-size:13.043082px;font-family:'cmex10'">E</tspan> <tspan x="120.119" y="-13.027" style="font-size:7.84px;font-family:'cmmi10'">M</tspan> <tspan x="122.119" y="-5.567" style="font-size:7.84px;font-family:'cmmi10'">I</tspan> <tspan x="185.131" y="-13.027" style="font-size:7.84px;font-family:'cmmi10'">M</tspan> <tspan x="186.131" y="2.792" style="font-size:7.84px;font-family:'cmmi10'">B</tspan> <tspan x="186.131" y="10.251" style="font-size:7.84px;font-family:'cmmi10'">U</tspan> <tspan x="187.131" y="-5.567" style="font-size:7.84px;font-family:'cmmi10'">I</tspan> <tspan x="258.354" y="-5.567" style="font-size:7.84px;font-family:'cmmi10'">N</tspan> <tspan x="258.354" y="14.157" style="font-size:7.84px;font-family:'cmmi10'">G</tspan> <tspan x="129.425" y="-17.864" style="font-size:13.050163px;font-family:'cmex10'">.</tspan> <tspan x="147.561" y="-17.864" style="font-size:13.050163px;font-family:'cmex10'">/</tspan> <tspan x="173.657" y="-17.729" style="font-size:16.009289px;font-family:'cmex10'">D</tspan> <tspan x="235.525" y="-17.729" style="font-size:16.009289px;font-family:'cmex10'">E</tspan> <tspan x="194.437" y="-17.745" style="font-size:16.01798px;font-family:'cmex10'">.</tspan> <tspan x="214.981" y="-17.745" style="font-size:16.01798px;font-family:'cmex10'">/</tspan> <tspan x="245.299" y="-21.386" style="font-size:15.142362px;font-family:'cmex10'">¿</tspan> <tspan x="266.359" y="-21.386" style="font-size:15.142362px;font-family:'cmex10'">Á</tspan> <tspan x="289.719" y="-21.386" style="font-size:15.142362px;font-family:'cmex10'">Â</tspan> <tspan x="313.08" y="-21.386" style="font-size:15.142362px;font-family:'cmex10'">À</tspan> <tspan x="258.844" y="-18.248" style="font-size:5.488px;font-family:'cmmi10'">M</tspan> <tspan x="259.844" y="-13.027" style="font-size:5.488px;font-family:'cmmi10'">I</tspan> <tspan x="259.844" y="1.184" style="font-size:5.488px;font-family:'cmmi10'">B</tspan> <tspan x="259.844" y="6.406" style="font-size:5.488px;font-family:'cmmi10'">U</tspan></text><rect width="10.866" height="1" x="58.661" y="-4.567"/><rect width="7.606" height=".7" x="120.119" y="-12.627"/><rect width="9.006" height="1" x="119.419" y="-4.567"/><rect width="7.606" height=".7" x="185.131" y="-12.627"/><rect width="9.006" height="1" x="184.431" y="-4.567"/><rect width="5.941" height=".7" x="186.131" y="3.192"/><rect width="5.325" height=".49" x="258.844" y="-18.268"/><rect width="6.305" height=".7" x="258.354" y="-12.627"/><rect width="7.705" height="1" x="257.654" y="-4.567"/><rect width="4.159" height=".49" x="259.844" y="1.164"/><rect width="6.163" height=".7" x="258.354" y="6.929"/></g></g></g></svg>