<svg xmlns="http://www.w3.org/2000/svg" xmlns:xlink="http://www.w3.org/1999/xlink" width="504" height="72" version="1.1" viewBox="0 0 378 54"><defs><style type="text/css">*{stroke-linejoin:round;stroke-linecap:butt}</style></defs><g id="figure_1"><g id="text_1"><g transform="translate(27.56 30.84)"><text><tspan x="0" y="-2.896" style="font-size:11.28125px;font-family:'cmr10'">(</tspan> <tspan x="46.081" y="-2.896" style="font-size:11.28125px;font-family:'cmr10'">)</tspan> <tspan x="4.379" y="-.068" style="font-size:16px;font-family:'cmmi10'">M</tspan> <tspan x="19.903" y="-2.896" style="font-size:11.28125px;font-family:'cmmi10'">=</tspan> <tspan x="25.543" y="-.068" style="font-size:16px;font-family:'cmr10'">?</tspan> <tspan x="38.527" y="-.068" style="font-size:16px;font-family:'cmr10'">?</tspan> <tspan x="79.129" y="-.068" style="font-size:16px;font-family:'cmr10'">?</tspan> <tspan x="95.495" y="-.068" style="font-size:16px;font-family:'cmr10'">?</tspan> <tspan x="139.42" y="-.068" style="font-size:16px;font-family:'cmr10'">?</tspan> <tspan x="157.556" y="-.068" style="font-size:16px;font-family:'cmr10'">?</tspan> <tspan x="206.462" y="-.068" style="font-size:16px;font-family:'cmr10'">?</tspan> <tspan x="227.006" y="-.068" style="font-size:16px;font-family:'cmr10'">?</tspan> <tspan x="280.776" y="-.068" style="font-size:16px;font-family:'cmr10'">?</tspan> <tspan x="304.137" y="-.068" style="font-size:16px;font-family:'cmr10'">?</tspan> <tspan x="33.098" y="-10.974" style="font-size:9.407166px;font-family:'cmex10'">²</tspan> <tspan x="50.461" y="-12.614" style="font-size:15.270358px;font-family:'cmex10'">¡</tspan> <tspan x="70.319" y="-12.614" style="font-size:15.270358px;font-family:'cmex10'">±</tspan> <tspan x="86.684" y="-12.614" style="font-size:15.270358px;font-family:'cmex10'">²</tspan> <tspan x="103.049" y="-12.614" style="font-size:15.270358px;font-family:'cmex10'">¢</tspan> <tspan x="58.452" y="-5.567" style="font-size:11.2px;font-family:'cmmi10'">M</tspan> <tspan x="59.452" y="5.089" style="font-size:11.2px;font-family:'cmmi10'">B</tspan> <tspan x="118.832" y="5.089" style="font-size:11.2px;font-family:'cmmi10'">B</tspan> <tspan x="110.041" y="-17.864" style="font-size:13.050163px;font-family:'cmex10'">³</tspan> <tspan x="128.839" y="-17.864" style="font-size:13.050163px;font-family:'cmex10'">.</tspan> <tspan x="146.975" y="-17.864" style="font-size:13.050163px;font-family:'cmex10'">/</tspan> <tspan x="165.111" y="-17.864" style="font-size:13.050163px;font-family:'cmex10'">´</tspan> <tspan x="119.532" y="-13.027" style="font-size:7.84px;font-family:'cmmi10'">M</tspan> <tspan x="121.532" y="-5.567" style="font-size:7.84px;font-family:'cmmi10'">I</tspan> <tspan x="184.166" y="-13.027" style="font-size:7.84px;font-family:'cmmi10'">M</tspan> <tspan x="185.166" y="2.792" style="font-size:7.84px;font-family:'cmmi10'">B</tspan> <tspan x="185.166" y="10.251" style="font-size:7.84px;font-family:'cmmi10'">U</tspan> <tspan x="186.166" y="-5.567" style="font-size:7.84px;font-family:'cmmi10'">I</tspan> <tspan x="256.966" y="-5.567" style="font-size:7.84px;font-family:'cmmi10'">N</tspan> <tspan x="256.966" y="14.157" style="font-size:7.84px;font-family:'cmmi10'">G</tspan> <tspan x="172.902" y="-17.745" style="font-size:16.01798px;font-family:'cmex10'">³</tspan> <tspan x="193.473" y="-17.745" style="font-size:16.01798px;font-family:'cmex10'">.</tspan> <tspan x="214.017" y="-17.745" style="font-size:16.01798px;font-family:'cmex10'">/</tspan> <tspan x="234.561" y="-17.745" style="font-size:16.01798px;font-family:'cmex10'">´</tspan> <tspan x="244.125" y="-21.386" style="font-size:15.142362px;font-family:'cmex10'">µ</tspan> <tspan x="264.97" y="-21.386" style="font-size:15.142362px;font-family:'cmex10'">Á</tspan> <tspan x="288.331" y="-21.386" style="font-size:15.142362px;font-family:'cmex10'">Â</tspan> <tspan x="311.692" y="-21.386" style="font-size:15.142362px;font-family:'cmex10'">¶</tspan> <tspan x="257.456" y="-18.248" style="font-size:5.488px;font-family:'cmmi10'">M</tspan> <tspan x="258.456" y="-13.027" style="font-size:5.488px;font-family:'cmmi10'">I</tspan> <tspan x="258.456" y="1.184" style="font-size:5.488px;font-family:'cmmi10'">B</tspan> <tspan x="258.456" y="6.406" style="font-size:5.488px;font-family:'cmmi10'">U</tspan></text><rect width="10.866" height="1" x="58.452" y="-4.567"/><rect width="7.606" height=".7" x="119.532" y="-12.627"/><rect width="9.006" height="1" x="118.832" y="-4.567"/><rect width="7.606" height=".7" x="184.166" y="-12.627"/><rect width="9.006" height="1" x="183.466" y="-4.567"/><rect width="5.941" height=".7" x="185.166" y="3.192"/><rect width="5.325" height=".49" x="257.456" y="-18.268"/><rect width="6.305" height=".7" x="256.966" y="-12.627"/><rect width="7.705" height="1" x="256.266" y="-4.567"/><rect width="4.159" height=".49" x="258.456" y="1.164"/><rect width="6.163" height=".7" x="256.966" y="6.929"/></g></g></g></svg>