<svg xmlns="http://www.w3.org/2000/svg" xmlns:xlink="http://www.w3.org/1999/xlink" width="504" height="72" version="1.1" viewBox="0 0 378 54"><defs><style type="text/css">*{stroke-linejoin:round;stroke-linecap:butt}</style></defs><g id="figure_1"><g id="text_1"><g transform="translate(17.88 30.84)"><text><tspan x="0" y="-.204" style="font-size:16px;font-family:'DejaVu Sans'">⟨</tspan> <tspan x="20.047" y="-.204" style="font-size:16px;font-family:'DejaVu Sans'">/</tspan> <tspan x="25.438" y="-.204" style="font-size:16px;font-family:'DejaVu Sans'">?</tspan> <tspan x="33.93" y="-.204" style="font-size:16px;font-family:'DejaVu Sans'">\</tspan> <tspan x="39.32" y="-.204" style="font-size:16px;font-family:'DejaVu Sans'">?</tspan> <tspan x="47.813" y="-.204" style="font-size:16px;font-family:'DejaVu Sans'">⟩</tspan> <tspan x="83.887" y="-.204" style="font-size:16px;font-family:'DejaVu Sans'">?</tspan> <tspan x="101.471" y="-.204" style="font-size:16px;font-family:'DejaVu Sans'">?</tspan> <tspan x="148.303" y="-.204" style="font-size:16px;font-family:'DejaVu Sans'">?</tspan> <tspan x="167.576" y="-.204" style="font-size:16px;font-family:'DejaVu Sans'">?</tspan> <tspan x="217.891" y="-.204" style="font-size:16px;font-family:'DejaVu Sans'">?</tspan> <tspan x="239.556" y="-.204" style="font-size:16px;font-family:'DejaVu Sans'">?</tspan> <tspan x="296.408" y="-.204" style="font-size:16px;font-family:'DejaVu Sans'">?</tspan> <tspan x="321.845" y="-.204" style="font-size:16px;font-family:'DejaVu Sans'">?</tspan> <tspan x="6.242" y="-.204" style="font-style:oblique;font-size:16px;font-family:'DejaVu Sans'">M</tspan> <tspan x="54.055" y="2.888" style="font-size:15.718095px;font-family:'STIXSizeOneSym'">⟨</tspan> <tspan x="74.794" y="2.888" style="font-size:15.718095px;font-family:'STIXSizeOneSym'">/</tspan> <tspan x="92.379" y="2.888" style="font-size:15.718095px;font-family:'STIXSizeOneSym'">\</tspan> <tspan x="109.963" y="2.888" style="font-size:15.718095px;font-family:'STIXSizeOneSym'">⟩</tspan> <tspan x="64.131" y="-5.704" style="font-style:oblique;font-size:11.2px;font-family:'DejaVu Sans'">M</tspan> <tspan x="65.131" y="5.466" style="font-style:oblique;font-size:11.2px;font-family:'DejaVu Sans'">B</tspan> <tspan x="128.359" y="5.466" style="font-style:oblique;font-size:11.2px;font-family:'DejaVu Sans'">B</tspan> <tspan x="119.04" y="1.732" style="font-size:13.387175px;font-family:'STIXSizeTwoSym'">⟨</tspan> <tspan x="137.523" y="1.732" style="font-size:13.387175px;font-family:'STIXSizeTwoSym'">/</tspan> <tspan x="156.796" y="1.732" style="font-size:13.387175px;font-family:'STIXSizeTwoSym'">\</tspan> <tspan x="176.068" y="1.732" style="font-size:13.387175px;font-family:'STIXSizeTwoSym'">⟩</tspan> <tspan x="129.059" y="-13.523" style="font-style:oblique;font-size:7.84px;font-family:'DejaVu Sans'">M</tspan> <tspan x="131.059" y="-5.704" style="font-style:oblique;font-size:7.84px;font-family:'DejaVu Sans'">I</tspan> <tspan x="196.253" y="-13.523" style="font-style:oblique;font-size:7.84px;font-family:'DejaVu Sans'">M</tspan> <tspan x="197.253" y="3.015" style="font-style:oblique;font-size:7.84px;font-family:'DejaVu Sans'">B</tspan> <tspan x="197.253" y="10.835" style="font-style:oblique;font-size:7.84px;font-family:'DejaVu Sans'">U</tspan> <tspan x="198.253" y="-5.704" style="font-style:oblique;font-size:7.84px;font-family:'DejaVu Sans'">I</tspan> <tspan x="271.688" y="-5.704" style="font-style:oblique;font-size:7.84px;font-family:'DejaVu Sans'">N</tspan> <tspan x="271.688" y="14.772" style="font-style:oblique;font-size:7.84px;font-family:'DejaVu Sans'">G</tspan> <tspan x="184.387" y="6.387" style="font-size:16.357841px;font-family:'STIXSizeTwoSym'">⟨</tspan> <tspan x="204.717" y="6.387" style="font-size:16.357841px;font-family:'STIXSizeTwoSym'">/</tspan> <tspan x="226.383" y="6.387" style="font-size:16.357841px;font-family:'STIXSizeTwoSym'">\</tspan> <tspan x="248.048" y="6.387" style="font-size:16.357841px;font-family:'STIXSizeTwoSym'">⟩</tspan> <tspan x="258.214" y="8.825" style="font-size:15.40147px;font-family:'STIXSizeThreeSym'">⟨</tspan> <tspan x="279.463" y="8.825" style="font-size:15.40147px;font-family:'STIXSizeThreeSym'">/</tspan> <tspan x="304.9" y="8.825" style="font-size:15.40147px;font-family:'STIXSizeThreeSym'">\</tspan> <tspan x="330.338" y="8.825" style="font-size:15.40147px;font-family:'STIXSizeThreeSym'">⟩</tspan> <tspan x="272.178" y="-18.997" style="font-style:oblique;font-size:5.488px;font-family:'DejaVu Sans'">M</tspan> <tspan x="273.178" y="1.3" style="font-style:oblique;font-size:5.488px;font-family:'DejaVu Sans'">B</tspan> <tspan x="273.178" y="6.773" style="font-style:oblique;font-size:5.488px;font-family:'DejaVu Sans'">U</tspan> <tspan x="274.178" y="-13.523" style="font-style:oblique;font-size:5.488px;font-family:'DejaVu Sans'">I</tspan></text><rect width="9.663" height="1" x="64.131" y="-4.704"/><rect width="6.764" height=".7" x="129.059" y="-13.123"/><rect width="8.164" height="1" x="128.359" y="-4.704"/><rect width="6.764" height=".7" x="196.253" y="-13.123"/><rect width="8.164" height="1" x="195.553" y="-4.704"/><rect width="5.738" height=".7" x="197.253" y="3.415"/><rect width="4.735" height=".49" x="272.178" y="-19.017"/><rect width="5.865" height=".7" x="271.688" y="-13.123"/><rect width="7.475" height="1" x="270.988" y="-4.704"/><rect width="4.017" height=".49" x="273.178" y="1.28"/><rect width="6.075" height=".7" x="271.688" y="7.253"/></g></g></g></svg>