<svg xmlns="http://www.w3.org/2000/svg" xmlns:xlink="http://www.w3.org/1999/xlink" width="504" height="72" version="1.1" viewBox="0 0 378 54"><metadata><rdf:RDF xmlns:cc="http://creativecommons.org/ns#" xmlns:dc="http://purl.org/dc/elements/1.1/" xmlns:rdf="http://www.w3.org/1999/02/22-rdf-syntax-ns#"><cc:Work><dc:type rdf:resource="http://purl.org/dc/dcmitype/StillImage"/><dc:date>2026-02-06T03:27:44.202630</dc:date><dc:format>image/svg+xml</dc:format><dc:creator><cc:Agent><dc:title>Matplotlib v3.11.0.dev1856+ga22069c80c, https://matplotlib.org/</dc:title></cc:Agent></dc:creator></cc:Work></rdf:RDF></metadata><defs><style type="text/css">*{stroke-linejoin:round;stroke-linecap:butt}</style></defs><g id="figure_1"><g id="patch_1"><path d="M 0 54 L 378 54 L 378 0 L 0 0 z" style="fill:#fff"/></g><g id="text_1"><g transform="translate(185.34 28.74) scale(0.12 -0.12)"><defs><path id="DejaVuSans-Oblique-3b" d="M 878 4666 L 1516 4666 L 2316 2981 L 3763 4666 L 4500 4666 L 2578 2438 L 3738 0 L 3103 0 L 2163 1966 L 459 0 L -275 0 L 1906 2509 L 878 4666 z" transform="scale(0.015625)"/><path id="DejaVuSans-Oblique-3c" d="M 403 4666 L 1081 4666 L 1953 2747 L 3616 4666 L 4325 4666 L 2209 2222 L 1778 0 L 1147 0 L 1575 2222 L 403 4666 z" transform="scale(0.015625)"/></defs><use transform="translate(6.25 40.965625) scale(0.7)" xlink:href="#DejaVuSans-Oblique-3b"/><use transform="translate(13.625 -13.508437) scale(0.49)" xlink:href="#DejaVuSans-Oblique-3b"/><use transform="translate(15.625 -62.3575) scale(0.49)" xlink:href="#DejaVuSans-Oblique-3c"/><path d="M 6.25 28.465625 L 6.25 34.715625 L 54.204102 34.715625 L 54.204102 28.465625 L 6.25 28.465625 z"/><path d="M 13.625 -22.258437 L 13.625 -17.883437 L 47.192871 -17.883437 L 47.192871 -22.258437 L 13.625 -22.258437 z"/></g></g></g></svg>