<svg xmlns="http://www.w3.org/2000/svg" xmlns:xlink="http://www.w3.org/1999/xlink" width="504" height="72" version="1.1" viewBox="0 0 378 54"><metadata><rdf:RDF xmlns:cc="http://creativecommons.org/ns#" xmlns:dc="http://purl.org/dc/elements/1.1/" xmlns:rdf="http://www.w3.org/1999/02/22-rdf-syntax-ns#"><cc:Work><dc:type rdf:resource="http://purl.org/dc/dcmitype/StillImage"/><dc:date>2026-03-12T19:45:29.350373</dc:date><dc:format>image/svg+xml</dc:format><dc:creator><cc:Agent><dc:title>Matplotlib v3.11.0.dev2072+gb1cf5d4866.d20260312, https://matplotlib.org/</dc:title></cc:Agent></dc:creator></cc:Work></rdf:RDF></metadata><defs><style type="text/css">*{stroke-linejoin:round;stroke-linecap:butt}</style></defs><g id="figure_1"><g id="patch_1"><path d="M 0 54 L 378 54 L 378 0 L 0 0 z" style="fill:#fff"/></g><g id="text_1"><g transform="translate(98.94 30.117188) scale(0.12 -0.12)"><defs><path id="STIXGeneral-Italic-3c3" d="M 5971 4237 L 4915 0 L 4371 0 L 5235 3475 L 2765 0 L 2630 0 L 1882 3462 L 1024 0 L 480 0 L 1536 4237 L 2323 4237 L 2989 1152 L 5184 4237 L 5971 4237 z" transform="scale(0.015625)"/></defs><use transform="translate(0 0.796875)" xlink:href="#STIXGeneral-Italic-3c3"/><use transform="translate(100.966927 0.796875)" xlink:href="#STIXGeneral-Italic-3c3"/><use transform="translate(201.933854 0.796875)" xlink:href="#STIXGeneral-Italic-3c3"/><use transform="translate(302.90078 0.796875)" xlink:href="#STIXGeneral-Italic-3c3"/><use transform="translate(409.422707 0.796875)" xlink:href="#STIXGeneral-Italic-3c3"/><use transform="translate(515.944634 0.796875)" xlink:href="#STIXGeneral-Italic-3c3"/><use transform="translate(628.022561 0.796875)" xlink:href="#STIXGeneral-Italic-3c3"/><use transform="translate(745.655487 0.796875)" xlink:href="#STIXGeneral-Italic-3c3"/><use transform="translate(879.955414 0.796875)" xlink:href="#STIXGeneral-Italic-3c3"/><use transform="translate(1064.255341 0.796875)" xlink:href="#STIXGeneral-Italic-3c3"/><use transform="translate(1348.555268 0.796875)" xlink:href="#STIXGeneral-Italic-3c3"/><use transform="translate(1416.188194 0.796875)" xlink:href="#STIXGeneral-Italic-3c3"/></g></g></g></svg>