<svg xmlns="http://www.w3.org/2000/svg" xmlns:xlink="http://www.w3.org/1999/xlink" width="504" height="72" version="1.1" viewBox="0 0 378 54"><defs><style type="text/css">*{stroke-linejoin:round;stroke-linecap:butt}</style></defs><g id="figure_1"><g id="text_1"><g transform="translate(9 30.84)"><text><tspan x="0" y="-.204" style="font-size:16px;font-family:'DejaVu Sans'">{</tspan> <tspan x="23.984" y="-.204" style="font-size:16px;font-family:'DejaVu Sans'">/</tspan> <tspan x="29.375" y="-.204" style="font-size:16px;font-family:'DejaVu Sans'">?</tspan> <tspan x="37.867" y="-.204" style="font-size:16px;font-family:'DejaVu Sans'">\</tspan> <tspan x="43.258" y="-.204" style="font-size:16px;font-family:'DejaVu Sans'">?</tspan> <tspan x="51.75" y="-.204" style="font-size:16px;font-family:'DejaVu Sans'">}</tspan> <tspan x="91.714" y="-.204" style="font-size:16px;font-family:'DejaVu Sans'">?</tspan> <tspan x="109.299" y="-.204" style="font-size:16px;font-family:'DejaVu Sans'">?</tspan> <tspan x="157.355" y="-.204" style="font-size:16px;font-family:'DejaVu Sans'">?</tspan> <tspan x="176.627" y="-.204" style="font-size:16px;font-family:'DejaVu Sans'">?</tspan> <tspan x="229.765" y="-.204" style="font-size:16px;font-family:'DejaVu Sans'">?</tspan> <tspan x="251.431" y="-.204" style="font-size:16px;font-family:'DejaVu Sans'">?</tspan> <tspan x="312.006" y="-.204" style="font-size:16px;font-family:'DejaVu Sans'">?</tspan> <tspan x="337.443" y="-.204" style="font-size:16px;font-family:'DejaVu Sans'">?</tspan> <tspan x="10.18" y="-.204" style="font-style:oblique;font-size:16px;font-family:'DejaVu Sans'">M</tspan> <tspan x="61.93" y="2.888" style="font-size:15.718095px;font-family:'STIXSizeOneSym'">{</tspan> <tspan x="82.622" y="2.888" style="font-size:15.718095px;font-family:'STIXSizeOneSym'">/</tspan> <tspan x="100.207" y="2.888" style="font-size:15.718095px;font-family:'STIXSizeOneSym'">\</tspan> <tspan x="117.791" y="2.888" style="font-size:15.718095px;font-family:'STIXSizeOneSym'">}</tspan> <tspan x="71.959" y="-5.704" style="font-style:oblique;font-size:11.2px;font-family:'DejaVu Sans'">M</tspan> <tspan x="72.959" y="5.466" style="font-style:oblique;font-size:11.2px;font-family:'DejaVu Sans'">B</tspan> <tspan x="137.41" y="5.466" style="font-style:oblique;font-size:11.2px;font-family:'DejaVu Sans'">B</tspan> <tspan x="126.82" y="1.732" style="font-size:13.387175px;font-family:'STIXSizeTwoSym'">{</tspan> <tspan x="146.575" y="1.732" style="font-size:13.387175px;font-family:'STIXSizeTwoSym'">/</tspan> <tspan x="165.847" y="1.732" style="font-size:13.387175px;font-family:'STIXSizeTwoSym'">\</tspan> <tspan x="185.119" y="1.732" style="font-size:13.387175px;font-family:'STIXSizeTwoSym'">}</tspan> <tspan x="138.11" y="-13.523" style="font-style:oblique;font-size:7.84px;font-family:'DejaVu Sans'">M</tspan> <tspan x="140.11" y="-5.704" style="font-style:oblique;font-size:7.84px;font-family:'DejaVu Sans'">I</tspan> <tspan x="208.128" y="-13.523" style="font-style:oblique;font-size:7.84px;font-family:'DejaVu Sans'">M</tspan> <tspan x="209.128" y="3.015" style="font-style:oblique;font-size:7.84px;font-family:'DejaVu Sans'">B</tspan> <tspan x="209.128" y="10.835" style="font-style:oblique;font-size:7.84px;font-family:'DejaVu Sans'">U</tspan> <tspan x="210.128" y="-5.704" style="font-style:oblique;font-size:7.84px;font-family:'DejaVu Sans'">I</tspan> <tspan x="287.285" y="-5.704" style="font-style:oblique;font-size:7.84px;font-family:'DejaVu Sans'">N</tspan> <tspan x="287.285" y="14.772" style="font-style:oblique;font-size:7.84px;font-family:'DejaVu Sans'">G</tspan> <tspan x="194.709" y="6.387" style="font-size:16.357841px;font-family:'STIXSizeTwoSym'">{</tspan> <tspan x="216.592" y="6.387" style="font-size:16.357841px;font-family:'STIXSizeTwoSym'">/</tspan> <tspan x="238.258" y="6.387" style="font-size:16.357841px;font-family:'STIXSizeTwoSym'">\</tspan> <tspan x="259.923" y="6.387" style="font-size:16.357841px;font-family:'STIXSizeTwoSym'">}</tspan> <tspan x="271.641" y="8.825" style="font-size:15.40147px;font-family:'STIXSizeThreeSym'">{</tspan> <tspan x="295.06" y="8.825" style="font-size:15.40147px;font-family:'STIXSizeThreeSym'">/</tspan> <tspan x="320.498" y="8.825" style="font-size:15.40147px;font-family:'STIXSizeThreeSym'">\</tspan> <tspan x="345.935" y="8.825" style="font-size:15.40147px;font-family:'STIXSizeThreeSym'">}</tspan> <tspan x="287.775" y="-18.997" style="font-style:oblique;font-size:5.488px;font-family:'DejaVu Sans'">M</tspan> <tspan x="288.775" y="1.3" style="font-style:oblique;font-size:5.488px;font-family:'DejaVu Sans'">B</tspan> <tspan x="288.775" y="6.773" style="font-style:oblique;font-size:5.488px;font-family:'DejaVu Sans'">U</tspan> <tspan x="289.775" y="-13.523" style="font-style:oblique;font-size:5.488px;font-family:'DejaVu Sans'">I</tspan></text><rect width="9.663" height="1" x="71.959" y="-4.704"/><rect width="6.764" height=".7" x="138.11" y="-13.123"/><rect width="8.164" height="1" x="137.41" y="-4.704"/><rect width="6.764" height=".7" x="208.128" y="-13.123"/><rect width="8.164" height="1" x="207.428" y="-4.704"/><rect width="5.738" height=".7" x="209.128" y="3.415"/><rect width="4.735" height=".49" x="287.775" y="-19.017"/><rect width="5.865" height=".7" x="287.285" y="-13.123"/><rect width="7.475" height="1" x="286.585" y="-4.704"/><rect width="4.017" height=".49" x="288.775" y="1.28"/><rect width="6.075" height=".7" x="287.285" y="7.253"/></g></g></g></svg>