<svg xmlns="http://www.w3.org/2000/svg" xmlns:xlink="http://www.w3.org/1999/xlink" width="504" height="72" version="1.1" viewBox="0 0 378 54"><defs><style type="text/css">*{stroke-linejoin:round;stroke-linecap:butt}</style></defs><g id="figure_1"><g id="text_1"><g transform="translate(20.52 30.84)"><text><tspan x="0" y="-.204" style="font-size:16px;font-family:'DejaVu Sans'">(</tspan> <tspan x="20.047" y="-.204" style="font-size:16px;font-family:'DejaVu Sans'">/</tspan> <tspan x="25.438" y="-.204" style="font-size:16px;font-family:'DejaVu Sans'">?</tspan> <tspan x="33.93" y="-.204" style="font-size:16px;font-family:'DejaVu Sans'">\</tspan> <tspan x="39.32" y="-.204" style="font-size:16px;font-family:'DejaVu Sans'">?</tspan> <tspan x="47.813" y="-.204" style="font-size:16px;font-family:'DejaVu Sans'">)</tspan> <tspan x="82.159" y="-.204" style="font-size:16px;font-family:'DejaVu Sans'">?</tspan> <tspan x="99.744" y="-.204" style="font-size:16px;font-family:'DejaVu Sans'">?</tspan> <tspan x="144.407" y="-.204" style="font-size:16px;font-family:'DejaVu Sans'">?</tspan> <tspan x="163.68" y="-.204" style="font-size:16px;font-family:'DejaVu Sans'">?</tspan> <tspan x="213.268" y="-.204" style="font-size:16px;font-family:'DejaVu Sans'">?</tspan> <tspan x="234.933" y="-.204" style="font-size:16px;font-family:'DejaVu Sans'">?</tspan> <tspan x="291.326" y="-.204" style="font-size:16px;font-family:'DejaVu Sans'">?</tspan> <tspan x="316.763" y="-.204" style="font-size:16px;font-family:'DejaVu Sans'">?</tspan> <tspan x="6.242" y="-.204" style="font-style:oblique;font-size:16px;font-family:'DejaVu Sans'">M</tspan> <tspan x="54.055" y="2.888" style="font-size:15.718095px;font-family:'STIXSizeOneSym'">(</tspan> <tspan x="73.067" y="2.888" style="font-size:15.718095px;font-family:'STIXSizeOneSym'">/</tspan> <tspan x="90.651" y="2.888" style="font-size:15.718095px;font-family:'STIXSizeOneSym'">\</tspan> <tspan x="108.236" y="2.888" style="font-size:15.718095px;font-family:'STIXSizeOneSym'">)</tspan> <tspan x="62.404" y="-5.704" style="font-style:oblique;font-size:11.2px;font-family:'DejaVu Sans'">M</tspan> <tspan x="63.404" y="5.466" style="font-style:oblique;font-size:11.2px;font-family:'DejaVu Sans'">B</tspan> <tspan x="124.463" y="5.466" style="font-style:oblique;font-size:11.2px;font-family:'DejaVu Sans'">B</tspan> <tspan x="115.585" y="1.732" style="font-size:13.387175px;font-family:'STIXSizeTwoSym'">(</tspan> <tspan x="133.627" y="1.732" style="font-size:13.387175px;font-family:'STIXSizeTwoSym'">/</tspan> <tspan x="152.9" y="1.732" style="font-size:13.387175px;font-family:'STIXSizeTwoSym'">\</tspan> <tspan x="172.172" y="1.732" style="font-size:13.387175px;font-family:'STIXSizeTwoSym'">)</tspan> <tspan x="125.163" y="-13.523" style="font-style:oblique;font-size:7.84px;font-family:'DejaVu Sans'">M</tspan> <tspan x="127.163" y="-5.704" style="font-style:oblique;font-size:7.84px;font-family:'DejaVu Sans'">I</tspan> <tspan x="191.631" y="-13.523" style="font-style:oblique;font-size:7.84px;font-family:'DejaVu Sans'">M</tspan> <tspan x="192.631" y="3.015" style="font-style:oblique;font-size:7.84px;font-family:'DejaVu Sans'">B</tspan> <tspan x="192.631" y="10.835" style="font-style:oblique;font-size:7.84px;font-family:'DejaVu Sans'">U</tspan> <tspan x="193.631" y="-5.704" style="font-style:oblique;font-size:7.84px;font-family:'DejaVu Sans'">I</tspan> <tspan x="266.605" y="-5.704" style="font-style:oblique;font-size:7.84px;font-family:'DejaVu Sans'">N</tspan> <tspan x="266.605" y="14.772" style="font-style:oblique;font-size:7.84px;font-family:'DejaVu Sans'">G</tspan> <tspan x="180.304" y="6.387" style="font-size:16.357841px;font-family:'STIXSizeTwoSym'">(</tspan> <tspan x="200.095" y="6.387" style="font-size:16.357841px;font-family:'STIXSizeTwoSym'">/</tspan> <tspan x="221.76" y="6.387" style="font-size:16.357841px;font-family:'STIXSizeTwoSym'">\</tspan> <tspan x="243.425" y="6.387" style="font-size:16.357841px;font-family:'STIXSizeTwoSym'">)</tspan> <tspan x="253.363" y="8.825" style="font-size:15.40147px;font-family:'STIXSizeThreeSym'">(</tspan> <tspan x="274.381" y="8.825" style="font-size:15.40147px;font-family:'STIXSizeThreeSym'">/</tspan> <tspan x="299.818" y="8.825" style="font-size:15.40147px;font-family:'STIXSizeThreeSym'">\</tspan> <tspan x="325.255" y="8.825" style="font-size:15.40147px;font-family:'STIXSizeThreeSym'">)</tspan> <tspan x="267.095" y="-18.997" style="font-style:oblique;font-size:5.488px;font-family:'DejaVu Sans'">M</tspan> <tspan x="268.095" y="1.3" style="font-style:oblique;font-size:5.488px;font-family:'DejaVu Sans'">B</tspan> <tspan x="268.095" y="6.773" style="font-style:oblique;font-size:5.488px;font-family:'DejaVu Sans'">U</tspan> <tspan x="269.095" y="-13.523" style="font-style:oblique;font-size:5.488px;font-family:'DejaVu Sans'">I</tspan></text><rect width="9.663" height="1" x="62.404" y="-4.704"/><rect width="6.764" height=".7" x="125.163" y="-13.123"/><rect width="8.164" height="1" x="124.463" y="-4.704"/><rect width="6.764" height=".7" x="191.631" y="-13.123"/><rect width="8.164" height="1" x="190.931" y="-4.704"/><rect width="5.738" height=".7" x="192.631" y="3.415"/><rect width="4.735" height=".49" x="267.095" y="-19.017"/><rect width="5.865" height=".7" x="266.605" y="-13.123"/><rect width="7.475" height="1" x="265.905" y="-4.704"/><rect width="4.017" height=".49" x="268.095" y="1.28"/><rect width="6.075" height=".7" x="266.605" y="7.253"/></g></g></g></svg>